<svg width="13" height="66" viewBox="0 0 13 66" fill="none" xmlns="http://www.w3.org/2000/svg">
<path d="M2.03244 0.000320435C2.29389 -0.0020752 2.5522 0.153259 2.78842 0.454918C3.02463 0.756569 3.23274 1.19687 3.39744 1.74347L11.8499 30.0107C12.1073 30.8537 12.248 31.9111 12.248 33.0023C12.248 34.0935 12.1073 35.1509 11.8499 35.9939L3.09994 64.2611C2.8029 65.2232 2.37606 65.8283 1.91331 65.9431C1.45057 66.058 0.989823 65.6733 0.632444 64.8736C0.275065 64.0739 0.0503235 62.9248 0.00765896 61.679C-0.0350056 60.4333 0.107903 59.1929 0.404944 58.2308L8.22744 32.9787L0.667445 7.72669C0.45345 7.03516 0.317515 6.19307 0.275726 5.30007C0.233936 4.40707 0.288041 3.50052 0.431639 2.68771C0.575236 1.87489 0.802317 1.18983 1.08601 0.713577C1.3697 0.23732 1.69814 -0.0102005 2.03244 0.000320435Z" fill="#666666"/>
</svg>
