<svg width="13" height="66" viewBox="0 0 13 66" fill="none" xmlns="http://www.w3.org/2000/svg">
<path d="M10.2156 65.9628C9.95416 65.9651 9.69584 65.8098 9.45963 65.5082C9.22342 65.2065 9.01531 64.7662 8.8506 64.2196L0.398104 35.9524C0.140711 35.1094 0 34.052 0 32.9608C0 31.8695 0.140711 30.8121 0.398104 29.9692L9.1481 1.70193C9.44515 0.739827 9.87199 0.134793 10.3347 0.0199355C10.7975 -0.0949224 11.2582 0.289804 11.6156 1.08948C11.973 1.88915 12.1977 3.03827 12.2404 4.28403C12.2831 5.5298 12.1401 6.77017 11.8431 7.73227L4.0206 32.9843L11.5806 58.2364C11.7946 58.9279 11.9305 59.77 11.9723 60.663C12.0141 61.556 11.96 62.4626 11.8164 63.2754C11.6728 64.0882 11.4457 64.7732 11.162 65.2495C10.8783 65.7258 10.5499 65.9733 10.2156 65.9628Z" fill="#666666"/>
</svg>
