<svg width="28" height="28" viewBox="0 0 28 28" fill="none" xmlns="http://www.w3.org/2000/svg">
<path d="M7.15715 4.05568C6.45932 4.32706 5.86918 4.6889 5.27904 5.27904C4.6889 5.86487 4.32706 6.45932 4.05568 7.15284C3.79292 7.82483 3.61631 8.59589 3.56461 9.72448C3.51292 10.8531 3.5 11.2149 3.5 14.0924C3.5 16.9699 3.51292 17.3317 3.56461 18.4603C3.61631 19.5889 3.79722 20.3599 4.05568 21.0319C4.32706 21.7298 4.6889 22.3199 5.27904 22.91C5.86918 23.5002 6.45932 23.862 7.15715 24.1334C7.82914 24.3962 8.6002 24.5728 9.72879 24.6245C10.8574 24.6762 11.2192 24.6891 14.0967 24.6891C16.9742 24.6891 17.336 24.6762 18.4646 24.6245C19.5932 24.5728 20.3642 24.3918 21.0362 24.1334C21.7341 23.862 22.3242 23.5002 22.9143 22.91C23.5045 22.3199 23.8663 21.7298 24.1377 21.0319C24.4005 20.3599 24.5771 19.5889 24.6288 18.4603C24.6805 17.3317 24.6934 16.9699 24.6934 14.0924C24.6934 11.2149 24.6805 10.8531 24.6288 9.72448C24.5771 8.59589 24.3962 7.82483 24.1377 7.15284C23.8663 6.45932 23.5045 5.86487 22.9186 5.27904C22.3285 4.6889 21.7384 4.32706 21.0405 4.05568C20.3686 3.79292 19.5975 3.61631 18.4689 3.56461C17.3403 3.51292 16.9785 3.5 14.101 3.5C11.2235 3.5 10.8617 3.51292 9.73309 3.56461C8.6002 3.612 7.82914 3.79292 7.15715 4.05568ZM18.3784 5.46857C19.4123 5.51596 19.9723 5.68826 20.347 5.83472C20.8424 6.02856 21.1956 6.25686 21.5661 6.62732C21.9365 6.99777 22.1648 7.35099 22.3587 7.84637C22.5051 8.22113 22.6774 8.78111 22.7248 9.81494C22.7765 10.9306 22.7851 11.2666 22.7851 14.0967C22.7851 16.9268 22.7722 17.2628 22.7248 18.3784C22.6774 19.4123 22.5051 19.9723 22.3587 20.347C22.1648 20.8424 21.9365 21.1956 21.5661 21.5661C21.1956 21.9365 20.8424 22.1648 20.347 22.3587C19.9723 22.5051 19.4123 22.6774 18.3784 22.7248C17.2628 22.7765 16.9268 22.7851 14.0967 22.7851C11.2666 22.7851 10.9306 22.7722 9.81494 22.7248C8.78111 22.6774 8.22113 22.5051 7.84637 22.3587C7.35099 22.1648 6.99777 21.9365 6.62732 21.5661C6.25686 21.1956 6.02856 20.8424 5.83472 20.347C5.68826 19.9723 5.51596 19.4123 5.46857 18.3784C5.41688 17.2628 5.40827 16.9268 5.40827 14.0967C5.40827 11.2666 5.42119 10.9306 5.46857 9.81494C5.51596 8.78111 5.68826 8.22113 5.83472 7.84637C6.02856 7.35099 6.25686 6.99777 6.62732 6.62732C6.99777 6.25686 7.35099 6.02856 7.84637 5.83472C8.22113 5.68826 8.78111 5.51596 9.81494 5.46857C10.9306 5.41688 11.2666 5.40827 14.0967 5.40827C16.9268 5.40827 17.2628 5.41688 18.3784 5.46857Z" fill="white"/>
<path d="M8.65615 14.0967C8.65615 17.1034 11.0943 19.5372 14.0966 19.5372C17.099 19.5372 19.5371 17.0991 19.5371 14.0967C19.5371 11.0944 17.1034 8.65625 14.0966 8.65625C11.0899 8.65625 8.65615 11.09 8.65615 14.0967ZM17.6289 14.0967C17.6289 16.0481 16.048 17.629 14.0966 17.629C12.1453 17.629 10.5644 16.0481 10.5644 14.0967C10.5644 12.1454 12.1453 10.5645 14.0966 10.5645C16.048 10.5645 17.6289 12.1454 17.6289 14.0967Z" fill="white"/>
<path d="M19.7568 9.71165C20.4587 9.71165 21.0276 9.14272 21.0276 8.44091C21.0276 7.7391 20.4587 7.17017 19.7568 7.17017C19.055 7.17017 18.4861 7.7391 18.4861 8.44091C18.4861 9.14272 19.055 9.71165 19.7568 9.71165Z" fill="white"/>
</svg>
