<svg width="28" height="28" viewBox="0 0 28 28" fill="none" xmlns="http://www.w3.org/2000/svg">
<path fill-rule="evenodd" clip-rule="evenodd" d="M24.5 7.4375C23.7125 7.83125 22.925 7.9625 22.0062 8.09375C22.925 7.56875 23.5812 6.78125 23.8438 5.73125C23.0562 6.25625 22.1375 6.51875 21.0875 6.78125C20.3 5.99375 19.1187 5.46875 17.9375 5.46875C15.7062 5.46875 13.7375 7.4375 13.7375 9.8C13.7375 10.1937 13.7375 10.4562 13.8687 10.7188C10.325 10.5875 7.04375 8.88125 4.94375 6.25625C4.55 6.9125 4.41875 7.56875 4.41875 8.4875C4.41875 9.93125 5.20625 11.2437 6.3875 12.0312C5.73125 12.0312 5.075 11.7687 4.41875 11.5062C4.41875 13.6062 5.8625 15.3125 7.83125 15.7062C7.4375 15.8375 7.04375 15.8375 6.65 15.8375C6.3875 15.8375 6.125 15.8375 5.8625 15.7062C6.3875 17.4125 7.9625 18.725 9.93125 18.725C8.4875 19.9062 6.65 20.5625 4.55 20.5625C4.15625 20.5625 3.89375 20.5625 3.5 20.5625C5.46875 21.7437 7.7 22.5312 10.0625 22.5312C17.9375 22.5312 22.2687 15.9688 22.2687 10.325C22.2687 10.1937 22.2687 9.93125 22.2687 9.8C23.1875 9.14375 23.975 8.35625 24.5 7.4375Z" fill="white"/>
</svg>
