<svg width="76" height="75" viewBox="0 0 76 75" fill="none" xmlns="http://www.w3.org/2000/svg">
<g clip-path="url(#clip0_174_85)">
<path d="M68.0448 17.767H66.3775V16.0999C66.3775 12.1751 63.1847 8.98218 59.26 8.98218H8.1692C4.24443 8.98218 1.05151 12.1752 1.05151 16.0999V49.5403C1.05151 53.4649 4.24456 56.658 8.1692 56.658H9.83636V58.3251C9.83636 62.2499 13.0294 65.4428 16.954 65.4428H68.0446C71.9693 65.4428 75.1624 62.2499 75.1624 58.3251V24.8847C75.1622 20.9599 71.9694 17.767 68.0448 17.767ZM69.9176 58.325C69.9176 59.3595 69.079 60.1981 68.0447 60.1981H16.954C15.9196 60.1981 15.081 59.3595 15.081 58.325V56.6579V54.0356V51.4133V24.8847C15.081 23.8501 15.9196 23.0116 16.954 23.0116H61.1329H63.7552H66.3775H68.0448C69.0792 23.0116 69.9178 23.8502 69.9178 24.8847V58.325H69.9176ZM6.29612 49.5402V16.0999C6.29612 15.0654 7.13472 14.2268 8.1692 14.2268H59.26C60.2943 14.2268 61.1329 15.0654 61.1329 16.0999V17.767H16.954C13.0294 17.767 9.83636 20.96 9.83636 24.8847V51.4133H8.16932C7.13472 51.4133 6.29612 50.5747 6.29612 49.5402Z" fill="#00AC4E"/>
<path d="M68.0451 65.5046H16.9545C12.996 65.5046 9.77557 62.2841 9.77557 58.3257V56.7197H8.16974C4.21131 56.7197 0.990845 53.4993 0.990845 49.5409V16.1005C0.990845 12.1421 4.21131 8.92163 8.16974 8.92163H59.2605C63.2188 8.92163 66.4393 12.1421 66.4393 16.1005V17.7065H68.0453C72.0036 17.7065 75.2241 20.9269 75.2241 24.8853V58.3257C75.224 62.2841 72.0036 65.5046 68.0451 65.5046ZM8.16974 9.04393C4.27876 9.04393 1.11327 12.2095 1.11327 16.1005V49.541C1.11327 53.4318 4.27876 56.5974 8.16974 56.5974H9.89811V58.3258C9.89811 62.2167 13.0636 65.3823 16.9546 65.3823H68.0451C71.9361 65.3823 75.1017 62.2168 75.1017 58.3258V24.8853C75.1017 20.9944 71.9363 17.8289 68.0453 17.8289H66.3168V16.1005C66.3168 12.2095 63.1515 9.04405 59.2605 9.04405H8.16974V9.04393ZM68.0453 60.26H16.9546C15.888 60.26 15.0203 59.3922 15.0203 58.3257V24.8853C15.0203 23.8188 15.888 22.9511 16.9546 22.9511H68.0453C69.1119 22.9511 69.9795 23.8188 69.9795 24.8853V58.3257C69.9794 59.3922 69.1118 60.26 68.0453 60.26ZM16.9546 23.0735C15.9555 23.0735 15.1427 23.8864 15.1427 24.8853V58.3257C15.1427 59.3248 15.9555 60.1375 16.9546 60.1375H68.0453C69.0443 60.1375 69.8571 59.3248 69.8571 58.3257V24.8853C69.8571 23.8863 69.0443 23.0735 68.0453 23.0735H16.9546ZM9.89811 51.4751H8.16986C7.10331 51.4751 6.23546 50.6074 6.23546 49.5409V16.1005C6.23546 15.034 7.10319 14.1662 8.16974 14.1662H59.2605C60.327 14.1662 61.1947 15.034 61.1947 16.1005V17.8289H16.9546C13.0636 17.8289 9.89811 20.9944 9.89811 24.8853V51.4751ZM8.16974 14.2885C7.17065 14.2885 6.35788 15.1013 6.35788 16.1004V49.5409C6.35788 50.5398 7.17077 51.3527 8.16986 51.3527H9.77581V24.8853C9.77581 20.9269 12.9963 17.7065 16.9547 17.7065H61.0724V16.1005C61.0724 15.1014 60.2596 14.2887 59.2606 14.2887H8.16974V14.2885Z" fill="#00AC4E"/>
<path d="M62.4511 52.4315L60.7254 50.7057L52.3698 42.3501C51.6383 41.6185 50.4524 41.6185 49.7209 42.3501L44.9729 47.0979L36.1033 38.2283C35.3718 37.4967 34.1858 37.4967 33.4544 38.2283L20.2695 51.4131L19.251 52.4315C18.8139 52.8686 18.6382 53.4677 18.7233 54.0354C18.7808 54.4178 18.9564 54.7861 19.251 55.0805L20.3107 56.1401C20.5899 56.4193 20.9355 56.5916 21.2967 56.6577C21.5203 56.6986 21.7499 56.6986 21.9734 56.6577C22.3347 56.5917 22.6803 56.4195 22.9595 56.1401L25.0642 54.0354L27.6865 51.4131L33.4543 45.6454C34.1858 44.9138 35.3718 44.9138 36.1031 45.6454L41.8707 51.4131L44.493 54.0354L46.5979 56.1401C46.8771 56.4193 47.2227 56.5916 47.584 56.6577C47.8075 56.6986 48.0371 56.6986 48.2606 56.6577C48.6219 56.5917 48.9674 56.4195 49.2467 56.1401L50.3064 55.0805C50.6007 54.786 50.7765 54.4178 50.834 54.0354C50.919 53.4677 50.7436 52.8687 50.3064 52.4315L49.2879 51.4131L48.6815 50.8066L51.0451 48.4427L54.0156 51.4131L56.6379 54.0354L58.7425 56.1401C59.0064 56.4039 59.3298 56.5721 59.6692 56.6456C60.1143 56.7419 60.5872 56.6748 60.9928 56.4441C61.1355 56.3628 61.2699 56.2619 61.3916 56.1402L62.4511 55.0806C63.138 54.3939 63.1799 53.3064 62.577 52.5706C62.5376 52.5227 62.4958 52.4763 62.4511 52.4315Z" fill="#00AC4E"/>
<path d="M47.9229 56.7503C47.806 56.7503 47.6885 56.7395 47.5735 56.7186C47.1862 56.6478 46.8341 56.463 46.5552 56.1841L36.0604 45.6893C35.7182 45.347 35.2632 45.1586 34.7792 45.1586C34.2953 45.1586 33.8402 45.347 33.4981 45.6893L23.0033 56.1841C22.7246 56.463 22.3724 56.6478 21.985 56.7186C21.7552 56.7605 21.5161 56.7605 21.2862 56.7186C20.8989 56.6478 20.5468 56.463 20.2679 56.1841L19.2082 55.1245C18.9135 54.83 18.7251 54.4567 18.6633 54.0452C18.5726 53.4402 18.7763 52.821 19.2082 52.3891L33.4116 38.1858C33.7769 37.8205 34.2627 37.6193 34.7793 37.6193C35.296 37.6193 35.7817 37.8205 36.1471 38.1858L44.9735 47.0123L49.6782 42.3077C50.0436 41.9424 50.5292 41.7411 51.046 41.7411C51.5627 41.7411 52.0484 41.9424 52.4137 42.3077L62.495 52.3891C62.5395 52.4337 62.5834 52.4819 62.625 52.5323C63.2573 53.3041 63.2014 54.4184 62.495 55.1247L61.4355 56.1842C61.3133 56.3064 61.1748 56.4119 61.0237 56.498C60.7339 56.663 60.4036 56.7502 60.0683 56.7502C60.0682 56.7502 60.0682 56.7502 60.0682 56.7502C59.9301 56.7502 59.7917 56.7355 59.6571 56.7062C59.294 56.6278 58.9631 56.4473 58.7 56.1842L51.046 48.5302L48.7689 50.8075L50.3506 52.3892C50.7824 52.821 50.986 53.4402 50.8953 54.0454C50.8336 54.4566 50.6453 54.8297 50.3506 55.1247L49.2909 56.1842C49.012 56.4631 48.6599 56.648 48.2726 56.7187C48.1574 56.7395 48.0399 56.7503 47.9229 56.7503ZM34.7793 45.0361C35.296 45.0361 35.7817 45.2374 36.1471 45.6027L46.6419 56.0975C46.9032 56.3588 47.233 56.5319 47.5957 56.5981C47.8109 56.6376 48.0352 56.6376 48.2504 56.5981C48.6132 56.5319 48.943 56.3588 49.2042 56.0975L50.2639 55.038C50.5399 54.7618 50.7163 54.4123 50.7742 54.027C50.8591 53.4601 50.6684 52.8801 50.2639 52.4755L48.5957 50.8073L51.0458 48.3569L58.7865 56.0975C59.0331 56.344 59.3429 56.5131 59.6829 56.5865C60.116 56.68 60.58 56.6095 60.9632 56.3915C61.1047 56.3109 61.2346 56.2119 61.349 56.0975L62.4084 55.038C63.07 54.3765 63.1224 53.3326 62.5304 52.61C62.4913 52.5627 62.4503 52.5174 62.4084 52.4755L52.3271 42.3941C51.9849 42.0518 51.5299 41.8634 51.046 41.8634C50.562 41.8634 50.107 42.0518 49.7648 42.3941L44.9735 47.1853L36.0605 38.2723C35.7183 37.93 35.2633 37.7416 34.7793 37.7416C34.2954 37.7416 33.8405 37.93 33.4982 38.2723L19.2949 52.4755C18.8903 52.8801 18.6995 53.4602 18.7846 54.027C18.8424 54.4124 19.0189 54.762 19.2949 55.038L20.3546 56.0975C20.6158 56.3588 20.9456 56.5319 21.3084 56.5981C21.5238 56.6376 21.7479 56.6376 21.9632 56.5981C22.326 56.5319 22.6559 56.3588 22.917 56.0975L33.4117 45.6027C33.7769 45.2374 34.2627 45.0361 34.7793 45.0361Z" fill="#00AC4E"/>
<path d="M61.1328 26.2902C60.316 25.9693 59.427 25.7928 58.4979 25.7928C54.5129 25.7928 51.2709 29.0349 51.2709 33.0197C51.2709 37.0047 54.5129 40.2466 58.4979 40.2466C59.4271 40.2466 60.3161 40.0702 61.1328 39.7492C62.1352 39.3552 63.0287 38.7436 63.7551 37.9728C64.9755 36.6783 65.7247 34.935 65.7247 33.0197C65.7247 31.1045 64.9755 29.3611 63.7551 28.0666C63.0287 27.2958 62.1351 26.6841 61.1328 26.2902ZM58.4975 35.002C57.4029 35.002 56.5154 34.1144 56.5154 33.0197C56.5154 31.925 57.4029 31.0376 58.4975 31.0376C59.5924 31.0376 60.4799 31.9251 60.4799 33.0197C60.48 34.1144 59.5925 35.002 58.4975 35.002Z" fill="#00AC4E"/>
<path d="M58.4984 40.3083C54.4796 40.3083 51.2102 37.0389 51.2102 33.0203C51.2102 29.0016 54.4796 25.7322 58.4984 25.7322C59.4144 25.7322 60.3086 25.901 61.1557 26.2339C62.1491 26.6242 63.0636 27.2436 63.8003 28.0252C65.0811 29.3838 65.7865 31.1577 65.7865 33.0203C65.7865 34.8828 65.0811 36.6567 63.8003 38.0154C63.0638 38.7968 62.1495 39.4161 61.1557 39.8068C60.3087 40.1395 59.4148 40.3083 58.4984 40.3083ZM58.4984 25.8546C54.5472 25.8546 51.3326 29.0691 51.3326 33.0203C51.3326 36.9715 54.5472 40.1859 58.4984 40.1859C59.3992 40.1859 60.2782 40.02 61.1111 39.6927C62.0879 39.3088 62.987 38.6998 63.7111 37.9314C64.9705 36.5955 65.664 34.8515 65.664 33.0203C65.664 31.1891 64.9705 29.4449 63.7111 28.1091C62.9868 27.3407 62.0876 26.7316 61.1111 26.3478C60.2781 26.0206 59.3992 25.8546 58.4984 25.8546ZM58.4982 35.0639C57.3714 35.0639 56.4548 34.1472 56.4548 33.0204C56.4548 31.8936 57.3714 30.977 58.4982 30.977C59.6251 30.977 60.5418 31.8937 60.5418 33.0204C60.5419 34.1472 59.6251 35.0639 58.4982 35.0639ZM58.4982 31.0993C57.439 31.0993 56.5772 31.9611 56.5772 33.0203C56.5772 34.0796 57.439 34.9413 58.4982 34.9413C59.5575 34.9413 60.4194 34.0795 60.4194 33.0203C60.4195 31.9611 59.5576 31.0993 58.4982 31.0993Z" fill="#00AC4E"/>
</g>
<defs>
<clipPath id="clip0_174_85">
<rect width="74.2331" height="74.2331" fill="white" transform="translate(0.990845 0.0965576)"/>
</clipPath>
</defs>
</svg>
