<svg width="13" height="13" viewBox="0 0 13 13" fill="none" xmlns="http://www.w3.org/2000/svg">
<path fill-rule="evenodd" clip-rule="evenodd" d="M9.03618 11.0662C8.9567 11.0662 8.87671 11.0476 8.80326 11.0094L6.23804 9.66915L3.67332 11.0094C3.50328 11.0974 3.29802 11.0823 3.14408 10.9696C2.98913 10.8569 2.91216 10.6663 2.94486 10.4776L3.43335 7.64625L1.36065 5.64147C1.2228 5.50815 1.173 5.30792 1.23186 5.1248C1.29072 4.94268 1.44818 4.80937 1.63835 4.7822L4.50592 4.36565L5.78778 1.78685C5.95782 1.44475 6.51876 1.44475 6.6888 1.78685L7.97065 4.36565L10.8382 4.7822C11.0284 4.80937 11.1859 4.94268 11.2447 5.1248C11.3036 5.30792 11.2538 5.50815 11.1159 5.64147L9.04323 7.64625L9.53172 10.4776C9.56442 10.6663 9.48695 10.8569 9.3325 10.9696C9.24496 11.034 9.14083 11.0662 9.03618 11.0662Z" fill="black"/>
<mask id="mask0_174_75" style="mask-type:alpha" maskUnits="userSpaceOnUse" x="1" y="1" width="11" height="11">
<path fill-rule="evenodd" clip-rule="evenodd" d="M9.03618 11.0662C8.9567 11.0662 8.87671 11.0476 8.80326 11.0094L6.23804 9.66915L3.67332 11.0094C3.50328 11.0974 3.29802 11.0823 3.14408 10.9696C2.98913 10.8569 2.91216 10.6663 2.94486 10.4776L3.43335 7.64625L1.36065 5.64147C1.2228 5.50815 1.173 5.30792 1.23186 5.1248C1.29072 4.94268 1.44818 4.80937 1.63835 4.7822L4.50592 4.36565L5.78778 1.78685C5.95782 1.44475 6.51876 1.44475 6.6888 1.78685L7.97065 4.36565L10.8382 4.7822C11.0284 4.80937 11.1859 4.94268 11.2447 5.1248C11.3036 5.30792 11.2538 5.50815 11.1159 5.64147L9.04323 7.64625L9.53172 10.4776C9.56442 10.6663 9.48695 10.8569 9.3325 10.9696C9.24496 11.034 9.14083 11.0662 9.03618 11.0662Z" fill="white"/>
</mask>
<g mask="url(#mask0_174_75)">
<rect x="0.201294" y="0.500977" width="12.074" height="12.074" fill="#00AC4E"/>
</g>
</svg>
